IKResults
version=1
nRows=17
nColumns=40
inDegrees=yes

Units are S.I. units (second, meters, Newtons, ...)
Angles are in degrees.

endheader
time	pelvis_tilt	pelvis_list	pelvis_rotation	pelvis_tx	pelvis_ty	pelvis_tz	hip_flexion_r	hip_adduction_r	hip_rotation_r	knee_angle_r	knee_angle_r_beta	ankle_angle_r	subtalar_angle_r	mtp_angle_r	hip_flexion_l	hip_adduction_l	hip_rotation_l	knee_angle_l	knee_angle_l_beta	ankle_angle_l	subtalar_angle_l	mtp_angle_l	lumbar_extension	lumbar_bending	lumbar_rotation	arm_flex_r	arm_add_r	arm_rot_r	elbow_flex_r	pro_sup_r	wrist_flex_r	wrist_dev_r	arm_flex_l	arm_add_l	arm_rot_l	elbow_flex_l	pro_sup_l	wrist_flex_l	wrist_dev_l
      0.52000000	     15.31763041	     -1.18245552	      1.89249663	     -0.39116774	      0.93611989	     -1.46881404	      9.07058478	     -1.04168597	    -14.59791421	    -27.81051511	     -0.48538506	      2.20682575	     -9.87198990	      3.63714454	    -24.94757492	      1.23556797	      5.07984175	    -13.38222476	     -0.23356388	     16.49031117	      4.50469944	     -7.95324606	    -21.50091963	      2.01362542	     -6.52666795	    -14.56782928	    -10.60295205	     -2.49541954	     17.16178611	     89.95437384	      0.00000000	      0.00000000	      9.52582462	     12.74858301	      8.95753010	     37.79616517	     89.95437384	      0.00000000	      0.00000000
      0.53000000	     15.02178208	     -1.42503220	      2.26147173	     -0.37782867	      0.93364107	     -1.46864998	      9.75563550	     -1.04076186	    -16.12594501	    -25.16112888	     -0.43914454	      1.15909010	     -8.05704288	      3.13844363	    -25.31787211	      1.68176959	      4.78691372	    -13.81406967	     -0.24110100	     17.02296276	      4.49523177	     -7.92169530	    -21.28291837	      2.37588789	     -6.77924265	    -14.87193816	    -10.57606732	     -2.95843779	     16.74527491	     89.95437384	      0.00000000	      0.00000000	     10.18956304	     12.95891953	      9.05158726	     39.51919760	     89.95437384	      0.00000000	      0.00000000
      0.54000000	     14.82587518	     -1.44568001	      2.64466223	     -0.36427026	      0.93126020	     -1.46877263	     10.37233627	     -1.48794412	    -18.39232591	    -22.82626995	     -0.39839357	     -0.40763323	     -5.68242996	     -4.98172385	    -25.91641582	      1.83819815	      4.10009501	    -14.03716549	     -0.24499476	     17.34727714	      5.08404356	     -8.05475442	    -21.14178141	      2.54998973	     -7.09412137	    -15.19996012	    -10.57590009	     -3.39165227	     16.42971787	     89.95437384	      0.00000000	      0.00000000	     10.83367760	     13.16357303	      9.02527433	     41.17784416	     89.95437384	      0.00000000	      0.00000000
      0.55000000	     14.59106542	     -1.76069334	      2.94683717	     -0.35048893	      0.92877753	     -1.46834639	     10.95090888	     -1.30264462	    -19.95284842	    -20.60724957	     -0.35966435	     -0.50596544	     -3.54635944	     -5.43818728	    -26.38884825	      2.36043476	      3.99809646	    -14.48999039	     -0.25289804	     17.73849996	      5.18519489	     -8.03047356	    -20.93590584	      2.98727565	     -7.23005122	    -15.53534321	    -10.58500225	     -3.90131674	     16.17762749	     89.95437384	      0.00000000	      0.00000000	     11.40409095	     13.25043866	      9.19966364	     42.81238604	     89.95437384	      0.00000000	      0.00000000
      0.56000000	     14.44131207	     -1.84779320	      3.31830325	     -0.33626628	      0.92635993	     -1.46815825	     11.60774340	     -1.72969794	    -22.71152424	    -19.27611115	     -0.33643161	      0.18153361	      0.85556403	     -7.63379773	    -26.94762329	      2.72385923	      4.06827666	    -14.94390952	     -0.26082042	     17.80736176	      4.78722531	     -8.18146966	    -20.76034678	      3.21316691	     -7.48489071	    -15.89662477	    -10.55394377	     -4.58522159	     16.00379979	     89.95437384	      0.00000000	      0.00000000	     11.87421501	     13.42559254	      9.15758376	     44.44939857	     89.95437384	      0.00000000	      0.00000000
      0.57000000	     14.17701328	     -2.15867102	      3.55540582	     -0.32236197	      0.92393310	     -1.46739057	     12.25128378	     -1.41465766	    -23.60196283	    -17.69641980	     -0.30886079	      0.73911589	      2.49492872	     -8.17549076	    -27.30226898	      3.23756324	      4.00125481	    -15.57057342	     -0.27175777	     18.06325140	      5.00657570	     -8.18371882	    -20.52545024	      3.61336860	     -7.63118114	    -16.06777115	    -10.57799979	     -4.94133282	     15.67936483	     89.95437384	      0.00000000	      0.00000000	     12.24367531	     13.52453213	      9.39499411	     46.13009466	     89.95437384	      0.00000000	      0.00000000
      0.58000000	     13.88936067	     -2.45740531	      3.72113331	     -0.30782695	      0.92154291	     -1.46644802	     12.88359786	     -1.11823729	    -24.26724614	    -16.51194838	     -0.28818787	      1.53815865	      4.08305780	     -8.65753832	    -27.69964820	      3.73008776	      4.01500340	    -16.11476233	     -0.28125566	     17.97042864	      5.06579108	     -8.17254080	    -20.18997132	      3.96429842	     -7.71858922	    -16.30485060	    -10.60552718	     -5.39529759	     15.48101911	     89.95437384	      0.00000000	      0.00000000	     12.44921088	     13.62044054	      9.57368641	     47.78539635	     89.95437384	      0.00000000	      0.00000000
      0.59000000	     13.70303230	     -2.80923660	      3.96670709	     -0.29321951	      0.91941542	     -1.46567499	     13.39504530	     -0.81958341	    -24.89789643	    -15.71662066	     -0.27430678	      2.20528747	      5.58687489	     -9.08845630	    -28.04725125	      4.31915572	      3.97266639	    -16.97447230	     -0.29626043	     17.77967409	      5.21895919	     -8.15500773	    -19.96831035	      4.41883934	     -7.86804747	    -16.46133202	    -10.66063046	     -5.87553469	     15.27966519	     89.95437384	      0.00000000	      0.00000000	     12.61730395	     13.61202486	      9.84451766	     49.37697770	     89.95437384	      0.00000000	      0.00000000
      0.60000000	     13.56131418	     -3.19908819	      4.28881221	     -0.27822838	      0.91750944	     -1.46476568	     13.78151909	     -0.49688085	    -25.41224895	    -15.29493673	     -0.26694700	      2.74543062	      6.98146292	     -9.52517167	    -28.37812688	      4.99869414	      3.77447526	    -17.95358223	     -0.31334912	     17.45839261	      5.37469508	     -8.16252056	    -19.70545620	      4.90543236	     -8.10831694	    -16.53491564	    -10.66982773	     -6.33262078	     14.94400426	     89.95437384	      0.00000000	      0.00000000	     12.68322096	     13.61315857	     10.14742484	     50.79924073	     89.95437384	      0.00000000	      0.00000000
      0.61000000	     13.38892129	     -3.40769183	      4.69442892	     -0.26294930	      0.91564537	     -1.46432356	     14.30033400	     -0.65106269	    -26.38327412	    -15.73883222	     -0.27469444	      3.21166526	      9.03127757	    -11.38617588	    -28.60548437	      5.49896601	      3.34829075	    -19.05190749	     -0.33251851	     16.89051237	      5.49375713	     -8.59649134	    -19.40166589	      5.28040961	     -8.39769629	    -16.71171768	    -10.65928477	     -7.22420230	     14.82200862	     89.95437384	      0.00000000	      0.00000000	     12.71856713	     13.55400099	     10.28201195	     52.10857698	     89.95437384	      0.00000000	      0.00000000
      0.62000000	     13.09683876	     -3.67278706	      4.85232298	     -0.24731906	      0.91382950	     -1.46343823	     14.73989108	     -0.36879061	    -25.58014707	    -16.12034040	     -0.28135302	      4.19230552	      8.45091459	    -11.40886523	    -28.72925482	      5.89612064	      2.95326566	    -20.19447061	     -0.35246000	     16.21794301	      6.16601660	     -8.39010313	    -18.95250753	      5.62583838	     -8.58669090	    -16.79978246	    -10.78750064	     -7.25632736	     14.67179027	     89.95437384	      0.00000000	      0.00000000	     12.45756085	     13.46789408	     10.58805311	     53.50901615	     89.95437384	      0.00000000	      0.00000000
      0.63000000	     12.87291948	     -3.88215932	      5.08160671	     -0.23151483	      0.91226121	     -1.46252003	     15.07041631	     -0.13000126	    -24.41958190	    -16.93841104	     -0.29563104	      5.00447701	      7.38965210	    -11.26145551	    -28.80132278	      6.22787216	      2.23184251	    -21.50618231	     -0.37535369	     15.30964165	      6.87115561	     -8.11839685	    -18.55510867	      5.90713483	     -8.79609927	    -16.92476407	    -10.86547952	     -7.31285387	     14.62561474	     89.95437384	      0.00000000	      0.00000000	     12.17059071	     13.38304394	     10.78751044	     54.77857734	     89.95437384	      0.00000000	      0.00000000
      0.64000000	     12.56150377	     -3.88797845	      5.17650665	     -0.21562508	      0.91095722	     -1.46166543	     15.24206830	      0.24235538	    -21.59753662	    -17.51653118	     -0.30572114	      5.14325361	      3.76666860	    -10.77601845	    -28.86650404	      6.00351608	      0.38666934	    -22.74172281	     -0.39691794	     14.43039546	      9.67304894	     -7.61149967	    -18.07296165	      5.97495176	     -8.97856777	    -16.95285896	    -10.93499554	     -7.49852767	     14.54868000	     89.95437384	      0.00000000	      0.00000000	     11.82046238	     13.21555153	     11.08492422	     55.82325706	     89.95437384	      0.00000000	      0.00000000
      0.65000000	     12.44101499	     -3.96124217	      5.44445282	     -0.19910204	      0.90995331	     -1.46094706	     15.18976196	      0.55228527	    -19.56426981	    -18.57070348	     -0.32411992	      4.84333533	      0.96636663	    -10.19697288	    -28.83391780	      6.06011076	     -0.61944090	    -24.43300109	     -0.42643632	     13.12947425	     11.28585262	     -7.13425499	    -17.70289603	      6.16721747	     -9.27834773	    -17.02378106	    -11.03647398	     -7.38416674	     14.53601181	     89.95437384	      0.00000000	      0.00000000	     11.32647759	     13.04598995	     11.30498173	     56.80381386	     89.95437384	      0.00000000	      0.00000000
      0.66000000	     12.48880225	     -4.05461247	      5.70042777	     -0.18246748	      0.90948496	     -1.46013989	     15.17363147	      0.78496336	    -19.12564795	    -20.04681301	     -0.34988289	      1.38000319	     -3.28782895	     -8.83364751	    -28.80894771	      6.11390047	     -1.55283671	    -26.34808201	     -0.45986078	     11.38414877	     12.89410575	     -6.40553075	    -17.51523364	      6.38879774	     -9.45770790	    -17.10897943	    -11.09829345	     -7.50858582	     14.61425372	     89.95437384	      0.00000000	      0.00000000	     10.87495309	     12.86349493	     11.35515461	     57.58291687	     89.95437384	      0.00000000	      0.00000000
      0.67000000	     12.63358324	     -4.33743286	      5.87076709	     -0.16576400	      0.90952881	     -1.45922853	     15.09777577	      1.03292111	    -18.63557531	    -21.69140180	     -0.37858638	     -0.53867519	     -4.67231115	     -8.21319862	    -28.64370229	      6.36723038	     -1.80088200	    -28.58058590	     -0.49882533	      9.16284110	     13.98847828	     -5.83493365	    -17.41721535	      6.82221610	     -9.43574374	    -17.15595007	    -11.21609008	     -7.39112805	     14.72220302	     89.95437384	      0.00000000	      0.00000000	     10.44566617	     12.54267047	     11.43055622	     58.06976306	     89.95437384	      0.00000000	      0.00000000
      0.68000000	     12.93442858	     -4.73427334	      5.96531962	     -0.14915905	      0.91025404	     -1.45795994	     14.76051042	      1.49446116	    -17.87159734	    -23.36115870	     -0.40772914	     -0.87542442	     -5.84074241	     -7.87753122	    -28.32797485	      6.71866850	     -1.77229297	    -31.20737788	     -0.54467149	      6.48406524	     15.16821672	     -5.25109238	    -17.50699247	      7.31968412	     -9.26715696	    -17.11707003	    -11.31200859	     -7.21730096	     14.88005036	     89.95437384	      0.00000000	      0.00000000	     10.06429789	     12.16493518	     11.53934444	     58.29633340	     89.95437384	      0.00000000	      0.00000000
